<?xml version="1.0" encoding="utf-8" standalone="no"?>
<!DOCTYPE svg PUBLIC "-//W3C//DTD SVG 1.1//EN"
  "http://www.w3.org/Graphics/SVG/1.1/DTD/svg11.dtd">
<svg xmlns:xlink="http://www.w3.org/1999/xlink" width="983.349531pt" height="609.468525pt" viewBox="0 0 983.349531 609.468525" xmlns="http://www.w3.org/2000/svg" version="1.1">
 <metadata>
  <rdf:RDF xmlns:dc="http://purl.org/dc/elements/1.1/" xmlns:cc="http://creativecommons.org/ns#" xmlns:rdf="http://www.w3.org/1999/02/22-rdf-syntax-ns#">
   <cc:Work>
    <dc:type rdf:resource="http://purl.org/dc/dcmitype/StillImage"/>
    <dc:date>2026-01-16T11:27:11.599276</dc:date>
    <dc:format>image/svg+xml</dc:format>
    <dc:creator>
     <cc:Agent>
      <dc:title>Matplotlib v3.10.8, https://matplotlib.org/</dc:title>
     </cc:Agent>
    </dc:creator>
   </cc:Work>
  </rdf:RDF>
 </metadata>
 <defs>
  <style type="text/css">*{stroke-linejoin: round; stroke-linecap: butt}</style>
 </defs>
 <g id="figure_1">
  <g id="patch_1">
   <path d="M 0 609.468525 
L 983.349531 609.468525 
L 983.349531 0 
L 0 0 
z
" style="fill: #ffffff"/>
  </g>
  <g id="axes_1">
   <g id="patch_2">
    <path d="M 63.489531 453.123187 
L 976.149531 453.123187 
L 976.149531 40.877187 
L 63.489531 40.877187 
z
" style="fill: #ffffff"/>
   </g>
   <g id="matplotlib.axis_1">
    <g id="xtick_1">
     <g id="line2d_1">
      <path d="M 198.197774 453.123187 
L 198.197774 40.877187 
" clip-path="url(#pb6b31af086)" style="fill: none; stroke: #cccccc; stroke-width: 1.5; stroke-linecap: round"/>
     </g>
     <g id="text_1">
      <!-- 0.2 -->
      <g style="fill: #262626" transform="translate(185.077696 478.160609) scale(0.165 -0.165)">
       <defs>
        <path id="DejaVuSans-30" d="M 2034 4250 
Q 1547 4250 1301 3770 
Q 1056 3291 1056 2328 
Q 1056 1369 1301 889 
Q 1547 409 2034 409 
Q 2525 409 2770 889 
Q 3016 1369 3016 2328 
Q 3016 3291 2770 3770 
Q 2525 4250 2034 4250 
z
M 2034 4750 
Q 2819 4750 3233 4129 
Q 3647 3509 3647 2328 
Q 3647 1150 3233 529 
Q 2819 -91 2034 -91 
Q 1250 -91 836 529 
Q 422 1150 422 2328 
Q 422 3509 836 4129 
Q 1250 4750 2034 4750 
z
" transform="scale(0.015625)"/>
        <path id="DejaVuSans-2e" d="M 684 794 
L 1344 794 
L 1344 0 
L 684 0 
L 684 794 
z
" transform="scale(0.015625)"/>
        <path id="DejaVuSans-32" d="M 1228 531 
L 3431 531 
L 3431 0 
L 469 0 
L 469 531 
Q 828 903 1448 1529 
Q 2069 2156 2228 2338 
Q 2531 2678 2651 2914 
Q 2772 3150 2772 3378 
Q 2772 3750 2511 3984 
Q 2250 4219 1831 4219 
Q 1534 4219 1204 4116 
Q 875 4013 500 3803 
L 500 4441 
Q 881 4594 1212 4672 
Q 1544 4750 1819 4750 
Q 2544 4750 2975 4387 
Q 3406 4025 3406 3419 
Q 3406 3131 3298 2873 
Q 3191 2616 2906 2266 
Q 2828 2175 2409 1742 
Q 1991 1309 1228 531 
z
" transform="scale(0.015625)"/>
       </defs>
       <use xlink:href="#DejaVuSans-30"/>
       <use xlink:href="#DejaVuSans-2e" transform="translate(63.623047 0)"/>
       <use xlink:href="#DejaVuSans-32" transform="translate(95.410156 0)"/>
      </g>
     </g>
    </g>
    <g id="xtick_2">
     <g id="line2d_2">
      <path d="M 384.64517 453.123187 
L 384.64517 40.877187 
" clip-path="url(#pb6b31af086)" style="fill: none; stroke: #cccccc; stroke-width: 1.5; stroke-linecap: round"/>
     </g>
     <g id="text_2">
      <!-- 0.4 -->
      <g style="fill: #262626" transform="translate(371.525092 478.160609) scale(0.165 -0.165)">
       <defs>
        <path id="DejaVuSans-34" d="M 2419 4116 
L 825 1625 
L 2419 1625 
L 2419 4116 
z
M 2253 4666 
L 3047 4666 
L 3047 1625 
L 3713 1625 
L 3713 1100 
L 3047 1100 
L 3047 0 
L 2419 0 
L 2419 1100 
L 313 1100 
L 313 1709 
L 2253 4666 
z
" transform="scale(0.015625)"/>
       </defs>
       <use xlink:href="#DejaVuSans-30"/>
       <use xlink:href="#DejaVuSans-2e" transform="translate(63.623047 0)"/>
       <use xlink:href="#DejaVuSans-34" transform="translate(95.410156 0)"/>
      </g>
     </g>
    </g>
    <g id="xtick_3">
     <g id="line2d_3">
      <path d="M 571.092565 453.123187 
L 571.092565 40.877187 
" clip-path="url(#pb6b31af086)" style="fill: none; stroke: #cccccc; stroke-width: 1.5; stroke-linecap: round"/>
     </g>
     <g id="text_3">
      <!-- 0.6 -->
      <g style="fill: #262626" transform="translate(557.972487 478.160609) scale(0.165 -0.165)">
       <defs>
        <path id="DejaVuSans-36" d="M 2113 2584 
Q 1688 2584 1439 2293 
Q 1191 2003 1191 1497 
Q 1191 994 1439 701 
Q 1688 409 2113 409 
Q 2538 409 2786 701 
Q 3034 994 3034 1497 
Q 3034 2003 2786 2293 
Q 2538 2584 2113 2584 
z
M 3366 4563 
L 3366 3988 
Q 3128 4100 2886 4159 
Q 2644 4219 2406 4219 
Q 1781 4219 1451 3797 
Q 1122 3375 1075 2522 
Q 1259 2794 1537 2939 
Q 1816 3084 2150 3084 
Q 2853 3084 3261 2657 
Q 3669 2231 3669 1497 
Q 3669 778 3244 343 
Q 2819 -91 2113 -91 
Q 1303 -91 875 529 
Q 447 1150 447 2328 
Q 447 3434 972 4092 
Q 1497 4750 2381 4750 
Q 2619 4750 2861 4703 
Q 3103 4656 3366 4563 
z
" transform="scale(0.015625)"/>
       </defs>
       <use xlink:href="#DejaVuSans-30"/>
       <use xlink:href="#DejaVuSans-2e" transform="translate(63.623047 0)"/>
       <use xlink:href="#DejaVuSans-36" transform="translate(95.410156 0)"/>
      </g>
     </g>
    </g>
    <g id="xtick_4">
     <g id="line2d_4">
      <path d="M 757.53996 453.123187 
L 757.53996 40.877187 
" clip-path="url(#pb6b31af086)" style="fill: none; stroke: #cccccc; stroke-width: 1.5; stroke-linecap: round"/>
     </g>
     <g id="text_4">
      <!-- 0.8 -->
      <g style="fill: #262626" transform="translate(744.419882 478.160609) scale(0.165 -0.165)">
       <defs>
        <path id="DejaVuSans-38" d="M 2034 2216 
Q 1584 2216 1326 1975 
Q 1069 1734 1069 1313 
Q 1069 891 1326 650 
Q 1584 409 2034 409 
Q 2484 409 2743 651 
Q 3003 894 3003 1313 
Q 3003 1734 2745 1975 
Q 2488 2216 2034 2216 
z
M 1403 2484 
Q 997 2584 770 2862 
Q 544 3141 544 3541 
Q 544 4100 942 4425 
Q 1341 4750 2034 4750 
Q 2731 4750 3128 4425 
Q 3525 4100 3525 3541 
Q 3525 3141 3298 2862 
Q 3072 2584 2669 2484 
Q 3125 2378 3379 2068 
Q 3634 1759 3634 1313 
Q 3634 634 3220 271 
Q 2806 -91 2034 -91 
Q 1263 -91 848 271 
Q 434 634 434 1313 
Q 434 1759 690 2068 
Q 947 2378 1403 2484 
z
M 1172 3481 
Q 1172 3119 1398 2916 
Q 1625 2713 2034 2713 
Q 2441 2713 2670 2916 
Q 2900 3119 2900 3481 
Q 2900 3844 2670 4047 
Q 2441 4250 2034 4250 
Q 1625 4250 1398 4047 
Q 1172 3844 1172 3481 
z
" transform="scale(0.015625)"/>
       </defs>
       <use xlink:href="#DejaVuSans-30"/>
       <use xlink:href="#DejaVuSans-2e" transform="translate(63.623047 0)"/>
       <use xlink:href="#DejaVuSans-38" transform="translate(95.410156 0)"/>
      </g>
     </g>
    </g>
    <g id="xtick_5">
     <g id="line2d_5">
      <path d="M 943.987356 453.123187 
L 943.987356 40.877187 
" clip-path="url(#pb6b31af086)" style="fill: none; stroke: #cccccc; stroke-width: 1.5; stroke-linecap: round"/>
     </g>
     <g id="text_5">
      <!-- 1.0 -->
      <g style="fill: #262626" transform="translate(930.867277 478.160609) scale(0.165 -0.165)">
       <defs>
        <path id="DejaVuSans-31" d="M 794 531 
L 1825 531 
L 1825 4091 
L 703 3866 
L 703 4441 
L 1819 4666 
L 2450 4666 
L 2450 531 
L 3481 531 
L 3481 0 
L 794 0 
L 794 531 
z
" transform="scale(0.015625)"/>
       </defs>
       <use xlink:href="#DejaVuSans-31"/>
       <use xlink:href="#DejaVuSans-2e" transform="translate(63.623047 0)"/>
       <use xlink:href="#DejaVuSans-30" transform="translate(95.410156 0)"/>
      </g>
     </g>
    </g>
    <g id="text_6">
     <!-- Cosine Similarity Threshold -->
     <g style="fill: #262626" transform="translate(424.275 496.229906) scale(0.14 -0.14)">
      <defs>
       <path id="DejaVuSans-43" d="M 4122 4306 
L 4122 3641 
Q 3803 3938 3442 4084 
Q 3081 4231 2675 4231 
Q 1875 4231 1450 3742 
Q 1025 3253 1025 2328 
Q 1025 1406 1450 917 
Q 1875 428 2675 428 
Q 3081 428 3442 575 
Q 3803 722 4122 1019 
L 4122 359 
Q 3791 134 3420 21 
Q 3050 -91 2638 -91 
Q 1578 -91 968 557 
Q 359 1206 359 2328 
Q 359 3453 968 4101 
Q 1578 4750 2638 4750 
Q 3056 4750 3426 4639 
Q 3797 4528 4122 4306 
z
" transform="scale(0.015625)"/>
       <path id="DejaVuSans-6f" d="M 1959 3097 
Q 1497 3097 1228 2736 
Q 959 2375 959 1747 
Q 959 1119 1226 758 
Q 1494 397 1959 397 
Q 2419 397 2687 759 
Q 2956 1122 2956 1747 
Q 2956 2369 2687 2733 
Q 2419 3097 1959 3097 
z
M 1959 3584 
Q 2709 3584 3137 3096 
Q 3566 2609 3566 1747 
Q 3566 888 3137 398 
Q 2709 -91 1959 -91 
Q 1206 -91 779 398 
Q 353 888 353 1747 
Q 353 2609 779 3096 
Q 1206 3584 1959 3584 
z
" transform="scale(0.015625)"/>
       <path id="DejaVuSans-73" d="M 2834 3397 
L 2834 2853 
Q 2591 2978 2328 3040 
Q 2066 3103 1784 3103 
Q 1356 3103 1142 2972 
Q 928 2841 928 2578 
Q 928 2378 1081 2264 
Q 1234 2150 1697 2047 
L 1894 2003 
Q 2506 1872 2764 1633 
Q 3022 1394 3022 966 
Q 3022 478 2636 193 
Q 2250 -91 1575 -91 
Q 1294 -91 989 -36 
Q 684 19 347 128 
L 347 722 
Q 666 556 975 473 
Q 1284 391 1588 391 
Q 1994 391 2212 530 
Q 2431 669 2431 922 
Q 2431 1156 2273 1281 
Q 2116 1406 1581 1522 
L 1381 1569 
Q 847 1681 609 1914 
Q 372 2147 372 2553 
Q 372 3047 722 3315 
Q 1072 3584 1716 3584 
Q 2034 3584 2315 3537 
Q 2597 3491 2834 3397 
z
" transform="scale(0.015625)"/>
       <path id="DejaVuSans-69" d="M 603 3500 
L 1178 3500 
L 1178 0 
L 603 0 
L 603 3500 
z
M 603 4863 
L 1178 4863 
L 1178 4134 
L 603 4134 
L 603 4863 
z
" transform="scale(0.015625)"/>
       <path id="DejaVuSans-6e" d="M 3513 2113 
L 3513 0 
L 2938 0 
L 2938 2094 
Q 2938 2591 2744 2837 
Q 2550 3084 2163 3084 
Q 1697 3084 1428 2787 
Q 1159 2491 1159 1978 
L 1159 0 
L 581 0 
L 581 3500 
L 1159 3500 
L 1159 2956 
Q 1366 3272 1645 3428 
Q 1925 3584 2291 3584 
Q 2894 3584 3203 3211 
Q 3513 2838 3513 2113 
z
" transform="scale(0.015625)"/>
       <path id="DejaVuSans-65" d="M 3597 1894 
L 3597 1613 
L 953 1613 
Q 991 1019 1311 708 
Q 1631 397 2203 397 
Q 2534 397 2845 478 
Q 3156 559 3463 722 
L 3463 178 
Q 3153 47 2828 -22 
Q 2503 -91 2169 -91 
Q 1331 -91 842 396 
Q 353 884 353 1716 
Q 353 2575 817 3079 
Q 1281 3584 2069 3584 
Q 2775 3584 3186 3129 
Q 3597 2675 3597 1894 
z
M 3022 2063 
Q 3016 2534 2758 2815 
Q 2500 3097 2075 3097 
Q 1594 3097 1305 2825 
Q 1016 2553 972 2059 
L 3022 2063 
z
" transform="scale(0.015625)"/>
       <path id="DejaVuSans-20" transform="scale(0.015625)"/>
       <path id="DejaVuSans-53" d="M 3425 4513 
L 3425 3897 
Q 3066 4069 2747 4153 
Q 2428 4238 2131 4238 
Q 1616 4238 1336 4038 
Q 1056 3838 1056 3469 
Q 1056 3159 1242 3001 
Q 1428 2844 1947 2747 
L 2328 2669 
Q 3034 2534 3370 2195 
Q 3706 1856 3706 1288 
Q 3706 609 3251 259 
Q 2797 -91 1919 -91 
Q 1588 -91 1214 -16 
Q 841 59 441 206 
L 441 856 
Q 825 641 1194 531 
Q 1563 422 1919 422 
Q 2459 422 2753 634 
Q 3047 847 3047 1241 
Q 3047 1584 2836 1778 
Q 2625 1972 2144 2069 
L 1759 2144 
Q 1053 2284 737 2584 
Q 422 2884 422 3419 
Q 422 4038 858 4394 
Q 1294 4750 2059 4750 
Q 2388 4750 2728 4690 
Q 3069 4631 3425 4513 
z
" transform="scale(0.015625)"/>
       <path id="DejaVuSans-6d" d="M 3328 2828 
Q 3544 3216 3844 3400 
Q 4144 3584 4550 3584 
Q 5097 3584 5394 3201 
Q 5691 2819 5691 2113 
L 5691 0 
L 5113 0 
L 5113 2094 
Q 5113 2597 4934 2840 
Q 4756 3084 4391 3084 
Q 3944 3084 3684 2787 
Q 3425 2491 3425 1978 
L 3425 0 
L 2847 0 
L 2847 2094 
Q 2847 2600 2669 2842 
Q 2491 3084 2119 3084 
Q 1678 3084 1418 2786 
Q 1159 2488 1159 1978 
L 1159 0 
L 581 0 
L 581 3500 
L 1159 3500 
L 1159 2956 
Q 1356 3278 1631 3431 
Q 1906 3584 2284 3584 
Q 2666 3584 2933 3390 
Q 3200 3197 3328 2828 
z
" transform="scale(0.015625)"/>
       <path id="DejaVuSans-6c" d="M 603 4863 
L 1178 4863 
L 1178 0 
L 603 0 
L 603 4863 
z
" transform="scale(0.015625)"/>
       <path id="DejaVuSans-61" d="M 2194 1759 
Q 1497 1759 1228 1600 
Q 959 1441 959 1056 
Q 959 750 1161 570 
Q 1363 391 1709 391 
Q 2188 391 2477 730 
Q 2766 1069 2766 1631 
L 2766 1759 
L 2194 1759 
z
M 3341 1997 
L 3341 0 
L 2766 0 
L 2766 531 
Q 2569 213 2275 61 
Q 1981 -91 1556 -91 
Q 1019 -91 701 211 
Q 384 513 384 1019 
Q 384 1609 779 1909 
Q 1175 2209 1959 2209 
L 2766 2209 
L 2766 2266 
Q 2766 2663 2505 2880 
Q 2244 3097 1772 3097 
Q 1472 3097 1187 3025 
Q 903 2953 641 2809 
L 641 3341 
Q 956 3463 1253 3523 
Q 1550 3584 1831 3584 
Q 2591 3584 2966 3190 
Q 3341 2797 3341 1997 
z
" transform="scale(0.015625)"/>
       <path id="DejaVuSans-72" d="M 2631 2963 
Q 2534 3019 2420 3045 
Q 2306 3072 2169 3072 
Q 1681 3072 1420 2755 
Q 1159 2438 1159 1844 
L 1159 0 
L 581 0 
L 581 3500 
L 1159 3500 
L 1159 2956 
Q 1341 3275 1631 3429 
Q 1922 3584 2338 3584 
Q 2397 3584 2469 3576 
Q 2541 3569 2628 3553 
L 2631 2963 
z
" transform="scale(0.015625)"/>
       <path id="DejaVuSans-74" d="M 1172 4494 
L 1172 3500 
L 2356 3500 
L 2356 3053 
L 1172 3053 
L 1172 1153 
Q 1172 725 1289 603 
Q 1406 481 1766 481 
L 2356 481 
L 2356 0 
L 1766 0 
Q 1100 0 847 248 
Q 594 497 594 1153 
L 594 3053 
L 172 3053 
L 172 3500 
L 594 3500 
L 594 4494 
L 1172 4494 
z
" transform="scale(0.015625)"/>
       <path id="DejaVuSans-79" d="M 2059 -325 
Q 1816 -950 1584 -1140 
Q 1353 -1331 966 -1331 
L 506 -1331 
L 506 -850 
L 844 -850 
Q 1081 -850 1212 -737 
Q 1344 -625 1503 -206 
L 1606 56 
L 191 3500 
L 800 3500 
L 1894 763 
L 2988 3500 
L 3597 3500 
L 2059 -325 
z
" transform="scale(0.015625)"/>
       <path id="DejaVuSans-54" d="M -19 4666 
L 3928 4666 
L 3928 4134 
L 2272 4134 
L 2272 0 
L 1638 0 
L 1638 4134 
L -19 4134 
L -19 4666 
z
" transform="scale(0.015625)"/>
       <path id="DejaVuSans-68" d="M 3513 2113 
L 3513 0 
L 2938 0 
L 2938 2094 
Q 2938 2591 2744 2837 
Q 2550 3084 2163 3084 
Q 1697 3084 1428 2787 
Q 1159 2491 1159 1978 
L 1159 0 
L 581 0 
L 581 4863 
L 1159 4863 
L 1159 2956 
Q 1366 3272 1645 3428 
Q 1925 3584 2291 3584 
Q 2894 3584 3203 3211 
Q 3513 2838 3513 2113 
z
" transform="scale(0.015625)"/>
       <path id="DejaVuSans-64" d="M 2906 2969 
L 2906 4863 
L 3481 4863 
L 3481 0 
L 2906 0 
L 2906 525 
Q 2725 213 2448 61 
Q 2172 -91 1784 -91 
Q 1150 -91 751 415 
Q 353 922 353 1747 
Q 353 2572 751 3078 
Q 1150 3584 1784 3584 
Q 2172 3584 2448 3432 
Q 2725 3281 2906 2969 
z
M 947 1747 
Q 947 1113 1208 752 
Q 1469 391 1925 391 
Q 2381 391 2643 752 
Q 2906 1113 2906 1747 
Q 2906 2381 2643 2742 
Q 2381 3103 1925 3103 
Q 1469 3103 1208 2742 
Q 947 2381 947 1747 
z
" transform="scale(0.015625)"/>
      </defs>
      <use xlink:href="#DejaVuSans-43"/>
      <use xlink:href="#DejaVuSans-6f" transform="translate(69.824219 0)"/>
      <use xlink:href="#DejaVuSans-73" transform="translate(131.005859 0)"/>
      <use xlink:href="#DejaVuSans-69" transform="translate(183.105469 0)"/>
      <use xlink:href="#DejaVuSans-6e" transform="translate(210.888672 0)"/>
      <use xlink:href="#DejaVuSans-65" transform="translate(274.267578 0)"/>
      <use xlink:href="#DejaVuSans-20" transform="translate(335.791016 0)"/>
      <use xlink:href="#DejaVuSans-53" transform="translate(367.578125 0)"/>
      <use xlink:href="#DejaVuSans-69" transform="translate(431.054688 0)"/>
      <use xlink:href="#DejaVuSans-6d" transform="translate(458.837891 0)"/>
      <use xlink:href="#DejaVuSans-69" transform="translate(556.25 0)"/>
      <use xlink:href="#DejaVuSans-6c" transform="translate(584.033203 0)"/>
      <use xlink:href="#DejaVuSans-61" transform="translate(611.816406 0)"/>
      <use xlink:href="#DejaVuSans-72" transform="translate(673.095703 0)"/>
      <use xlink:href="#DejaVuSans-69" transform="translate(714.208984 0)"/>
      <use xlink:href="#DejaVuSans-74" transform="translate(741.992188 0)"/>
      <use xlink:href="#DejaVuSans-79" transform="translate(781.201172 0)"/>
      <use xlink:href="#DejaVuSans-20" transform="translate(840.380859 0)"/>
      <use xlink:href="#DejaVuSans-54" transform="translate(872.167969 0)"/>
      <use xlink:href="#DejaVuSans-68" transform="translate(933.251953 0)"/>
      <use xlink:href="#DejaVuSans-72" transform="translate(996.630859 0)"/>
      <use xlink:href="#DejaVuSans-65" transform="translate(1035.494141 0)"/>
      <use xlink:href="#DejaVuSans-73" transform="translate(1097.017578 0)"/>
      <use xlink:href="#DejaVuSans-68" transform="translate(1149.117188 0)"/>
      <use xlink:href="#DejaVuSans-6f" transform="translate(1212.496094 0)"/>
      <use xlink:href="#DejaVuSans-6c" transform="translate(1273.677734 0)"/>
      <use xlink:href="#DejaVuSans-64" transform="translate(1301.460938 0)"/>
     </g>
    </g>
   </g>
   <g id="matplotlib.axis_2">
    <g id="ytick_1">
     <g id="line2d_6">
      <path d="M 63.489531 434.384733 
L 976.149531 434.384733 
" clip-path="url(#pb6b31af086)" style="fill: none; stroke: #cccccc; stroke-width: 1.5; stroke-linecap: round"/>
     </g>
     <g id="text_7">
      <!-- 0.0 -->
      <g style="fill: #262626" transform="translate(24.749375 440.653444) scale(0.165 -0.165)">
       <use xlink:href="#DejaVuSans-30"/>
       <use xlink:href="#DejaVuSans-2e" transform="translate(63.623047 0)"/>
       <use xlink:href="#DejaVuSans-30" transform="translate(95.410156 0)"/>
      </g>
     </g>
    </g>
    <g id="ytick_2">
     <g id="line2d_7">
      <path d="M 63.489531 354.743613 
L 976.149531 354.743613 
" clip-path="url(#pb6b31af086)" style="fill: none; stroke: #cccccc; stroke-width: 1.5; stroke-linecap: round"/>
     </g>
     <g id="text_8">
      <!-- 0.2 -->
      <g style="fill: #262626" transform="translate(24.749375 361.012324) scale(0.165 -0.165)">
       <use xlink:href="#DejaVuSans-30"/>
       <use xlink:href="#DejaVuSans-2e" transform="translate(63.623047 0)"/>
       <use xlink:href="#DejaVuSans-32" transform="translate(95.410156 0)"/>
      </g>
     </g>
    </g>
    <g id="ytick_3">
     <g id="line2d_8">
      <path d="M 63.489531 275.102494 
L 976.149531 275.102494 
" clip-path="url(#pb6b31af086)" style="fill: none; stroke: #cccccc; stroke-width: 1.5; stroke-linecap: round"/>
     </g>
     <g id="text_9">
      <!-- 0.4 -->
      <g style="fill: #262626" transform="translate(24.749375 281.371205) scale(0.165 -0.165)">
       <use xlink:href="#DejaVuSans-30"/>
       <use xlink:href="#DejaVuSans-2e" transform="translate(63.623047 0)"/>
       <use xlink:href="#DejaVuSans-34" transform="translate(95.410156 0)"/>
      </g>
     </g>
    </g>
    <g id="ytick_4">
     <g id="line2d_9">
      <path d="M 63.489531 195.461374 
L 976.149531 195.461374 
" clip-path="url(#pb6b31af086)" style="fill: none; stroke: #cccccc; stroke-width: 1.5; stroke-linecap: round"/>
     </g>
     <g id="text_10">
      <!-- 0.6 -->
      <g style="fill: #262626" transform="translate(24.749375 201.730085) scale(0.165 -0.165)">
       <use xlink:href="#DejaVuSans-30"/>
       <use xlink:href="#DejaVuSans-2e" transform="translate(63.623047 0)"/>
       <use xlink:href="#DejaVuSans-36" transform="translate(95.410156 0)"/>
      </g>
     </g>
    </g>
    <g id="ytick_5">
     <g id="line2d_10">
      <path d="M 63.489531 115.820255 
L 976.149531 115.820255 
" clip-path="url(#pb6b31af086)" style="fill: none; stroke: #cccccc; stroke-width: 1.5; stroke-linecap: round"/>
     </g>
     <g id="text_11">
      <!-- 0.8 -->
      <g style="fill: #262626" transform="translate(24.749375 122.088966) scale(0.165 -0.165)">
       <use xlink:href="#DejaVuSans-30"/>
       <use xlink:href="#DejaVuSans-2e" transform="translate(63.623047 0)"/>
       <use xlink:href="#DejaVuSans-38" transform="translate(95.410156 0)"/>
      </g>
     </g>
    </g>
    <g id="text_12">
     <!-- F1 Score -->
     <g style="fill: #262626" transform="translate(17.837812 277.308) rotate(-90) scale(0.14 -0.14)">
      <defs>
       <path id="DejaVuSans-46" d="M 628 4666 
L 3309 4666 
L 3309 4134 
L 1259 4134 
L 1259 2759 
L 3109 2759 
L 3109 2228 
L 1259 2228 
L 1259 0 
L 628 0 
L 628 4666 
z
" transform="scale(0.015625)"/>
       <path id="DejaVuSans-63" d="M 3122 3366 
L 3122 2828 
Q 2878 2963 2633 3030 
Q 2388 3097 2138 3097 
Q 1578 3097 1268 2742 
Q 959 2388 959 1747 
Q 959 1106 1268 751 
Q 1578 397 2138 397 
Q 2388 397 2633 464 
Q 2878 531 3122 666 
L 3122 134 
Q 2881 22 2623 -34 
Q 2366 -91 2075 -91 
Q 1284 -91 818 406 
Q 353 903 353 1747 
Q 353 2603 823 3093 
Q 1294 3584 2113 3584 
Q 2378 3584 2631 3529 
Q 2884 3475 3122 3366 
z
" transform="scale(0.015625)"/>
      </defs>
      <use xlink:href="#DejaVuSans-46"/>
      <use xlink:href="#DejaVuSans-31" transform="translate(57.519531 0)"/>
      <use xlink:href="#DejaVuSans-20" transform="translate(121.142578 0)"/>
      <use xlink:href="#DejaVuSans-53" transform="translate(152.929688 0)"/>
      <use xlink:href="#DejaVuSans-63" transform="translate(216.40625 0)"/>
      <use xlink:href="#DejaVuSans-6f" transform="translate(271.386719 0)"/>
      <use xlink:href="#DejaVuSans-72" transform="translate(332.568359 0)"/>
      <use xlink:href="#DejaVuSans-65" transform="translate(371.431641 0)"/>
     </g>
    </g>
   </g>
   <g id="FillBetweenPolyCollection_1"/>
   <g id="FillBetweenPolyCollection_2"/>
   <g id="FillBetweenPolyCollection_3"/>
   <g id="FillBetweenPolyCollection_4"/>
   <g id="line2d_11">
    <path d="M 104.974077 142.012133 
L 114.296446 138.160093 
L 123.618816 133.773323 
L 132.941186 128.631652 
L 142.263556 123.517594 
L 151.585926 118.43229 
L 160.908295 112.752048 
L 170.230665 108.498785 
L 179.553035 103.92592 
L 188.875405 98.966165 
L 198.197774 94.512598 
L 207.520144 90.276428 
L 216.842514 86.136013 
L 226.164884 81.698146 
L 235.487253 78.184364 
L 244.809623 74.5107 
L 254.131993 71.731388 
L 263.454363 70.334523 
L 272.776732 68.55568 
L 282.099102 67.155906 
L 291.421472 65.58606 
L 300.743842 64.220287 
L 310.066212 62.91152 
L 319.388581 61.17157 
L 328.710951 61.060195 
L 338.033321 61.053348 
L 347.355691 61.752979 
L 356.67806 61.836002 
L 366.00043 62.844689 
L 375.3228 63.516288 
L 384.64517 64.251954 
L 393.967539 64.865359 
L 403.289909 66.354005 
L 412.612279 68.32953 
L 421.934649 70.717671 
L 431.257018 73.026271 
L 440.579388 74.779501 
L 449.901758 77.352448 
L 459.224128 79.816476 
L 468.546498 81.273665 
L 477.868867 84.638018 
L 487.191237 88.050334 
L 496.513607 91.420823 
L 505.835977 94.847764 
L 515.158346 98.784588 
L 524.480716 103.523192 
L 533.803086 107.250952 
L 543.125456 111.560411 
L 552.447825 116.338667 
L 561.770195 121.003996 
L 571.092565 125.925855 
L 580.414935 131.251056 
L 589.737304 136.017427 
L 599.059674 141.34363 
L 608.382044 147.986472 
L 617.704414 154.171163 
L 627.026784 160.08735 
L 636.349153 166.953555 
L 645.671523 175.03385 
L 654.993893 181.497268 
L 664.316263 189.151094 
L 673.638632 198.732213 
L 682.961002 207.6556 
L 692.283372 215.955752 
L 701.605742 223.098446 
L 710.928111 230.539478 
L 720.250481 239.15553 
L 729.572851 250.188692 
L 738.895221 260.708299 
L 748.21759 269.550919 
L 757.53996 278.788134 
L 766.86233 288.155524 
L 776.1847 301.229676 
L 785.50707 308.961347 
L 794.829439 321.141251 
L 804.151809 331.47027 
L 813.474179 342.454379 
L 822.796549 353.443113 
L 832.118918 363.702009 
L 841.441288 373.890225 
L 850.763658 384.368571 
L 860.086028 392.61921 
L 869.408397 401.054293 
L 878.730767 409.680074 
L 888.053137 416.020626 
L 897.375507 422.047166 
L 906.697877 427.530199 
L 916.020246 430.300573 
L 925.342616 433.521415 
L 934.664986 434.384733 
" clip-path="url(#pb6b31af086)" style="fill: none; stroke: #4776ee; stroke-width: 2.5; stroke-linecap: round"/>
   </g>
   <g id="line2d_12">
    <path d="M 104.974077 128.426407 
L 114.296446 120.441364 
L 123.618816 113.019649 
L 132.941186 104.450724 
L 142.263556 96.699677 
L 151.585926 90.173924 
L 160.908295 85.694166 
L 170.230665 78.939468 
L 179.553035 74.799403 
L 188.875405 69.779967 
L 198.197774 65.957809 
L 207.520144 63.829393 
L 216.842514 62.175539 
L 226.164884 61.140322 
L 235.487253 59.615642 
L 244.809623 60.004328 
L 254.131993 59.937116 
L 263.454363 60.074767 
L 272.776732 60.441767 
L 282.099102 60.76797 
L 291.421472 61.727354 
L 300.743842 62.703697 
L 310.066212 64.581979 
L 319.388581 66.223799 
L 328.710951 67.77912 
L 338.033321 68.677498 
L 347.355691 70.443338 
L 356.67806 72.538558 
L 366.00043 74.809709 
L 375.3228 77.772124 
L 384.64517 79.710572 
L 393.967539 82.312346 
L 403.289909 85.058315 
L 412.612279 88.203554 
L 421.934649 91.351094 
L 431.257018 94.882208 
L 440.579388 98.020024 
L 449.901758 101.419738 
L 459.224128 104.122414 
L 468.546498 107.03332 
L 477.868867 111.231245 
L 487.191237 115.251297 
L 496.513607 119.315231 
L 505.835977 123.317437 
L 515.158346 127.766423 
L 524.480716 133.14522 
L 533.803086 137.440807 
L 543.125456 143.807832 
L 552.447825 149.535921 
L 561.770195 155.121843 
L 571.092565 161.110555 
L 580.414935 166.858278 
L 589.737304 173.123543 
L 599.059674 178.442538 
L 608.382044 185.39488 
L 617.704414 192.214398 
L 627.026784 197.175228 
L 636.349153 204.293321 
L 645.671523 211.551433 
L 654.993893 218.355441 
L 664.316263 226.146582 
L 673.638632 234.27085 
L 682.961002 242.000629 
L 692.283372 250.955719 
L 701.605742 259.784948 
L 710.928111 266.844931 
L 720.250481 274.342856 
L 729.572851 280.752532 
L 738.895221 288.443661 
L 748.21759 298.097591 
L 757.53996 308.808013 
L 766.86233 317.818759 
L 776.1847 326.913145 
L 785.50707 335.093382 
L 794.829439 344.318982 
L 804.151809 351.356689 
L 813.474179 362.09087 
L 822.796549 370.950233 
L 832.118918 378.905306 
L 841.441288 387.226132 
L 850.763658 396.323232 
L 860.086028 402.644459 
L 869.408397 409.882995 
L 878.730767 415.196642 
L 888.053137 421.001456 
L 897.375507 425.623569 
L 906.697877 428.593432 
L 916.020246 432.229941 
L 925.342616 434.168728 
L 934.664986 434.384733 
" clip-path="url(#pb6b31af086)" style="fill: none; stroke: #1bd0d5; stroke-width: 2.5; stroke-linecap: round"/>
   </g>
   <g id="line2d_13">
    <path d="M 104.974077 168.914335 
L 114.296446 168.914335 
L 123.618816 168.914335 
L 132.941186 168.914335 
L 142.263556 168.914335 
L 151.585926 168.914335 
L 160.908295 168.914335 
L 170.230665 168.914335 
L 179.553035 168.914335 
L 188.875405 168.914335 
L 198.197774 168.914335 
L 207.520144 168.914335 
L 216.842514 168.914335 
L 226.164884 168.914335 
L 235.487253 168.914335 
L 244.809623 168.914335 
L 254.131993 168.914335 
L 263.454363 168.914335 
L 272.776732 168.914335 
L 282.099102 168.914335 
L 291.421472 168.914335 
L 300.743842 168.914335 
L 310.066212 168.914335 
L 319.388581 168.914335 
L 328.710951 168.890325 
L 338.033321 168.890325 
L 347.355691 168.890325 
L 356.67806 168.866312 
L 366.00043 168.842294 
L 375.3228 168.842294 
L 384.64517 168.842294 
L 393.967539 168.818272 
L 403.289909 168.746179 
L 412.612279 168.722139 
L 421.934649 168.746133 
L 431.257018 168.698036 
L 440.579388 168.722034 
L 449.901758 168.770057 
L 459.224128 168.697801 
L 468.546498 168.60145 
L 477.868867 168.360268 
L 487.191237 168.142408 
L 496.513607 167.923683 
L 505.835977 167.850034 
L 515.158346 167.312923 
L 524.480716 166.968071 
L 533.803086 166.106803 
L 543.125456 165.162883 
L 552.447825 164.028376 
L 561.770195 162.797849 
L 571.092565 160.815833 
L 580.414935 158.958245 
L 589.737304 156.007202 
L 599.059674 153.312265 
L 608.382044 150.623424 
L 617.704414 146.244952 
L 627.026784 142.100825 
L 636.349153 138.248123 
L 645.671523 133.253259 
L 654.993893 129.114849 
L 664.316263 124.881611 
L 673.638632 120.80507 
L 682.961002 116.199403 
L 692.283372 115.013291 
L 701.605742 112.950691 
L 710.928111 111.140702 
L 720.250481 112.338676 
L 729.572851 114.400205 
L 738.895221 120.253607 
L 748.21759 126.329338 
L 757.53996 136.288154 
L 766.86233 148.371713 
L 776.1847 160.570313 
L 785.50707 174.434967 
L 794.829439 188.091865 
L 804.151809 202.371435 
L 813.474179 220.233009 
L 822.796549 238.82353 
L 832.118918 258.488173 
L 841.441288 277.94682 
L 850.763658 299.168781 
L 860.086028 321.459374 
L 869.408397 342.96193 
L 878.730767 365.500592 
L 888.053137 384.558397 
L 897.375507 401.848548 
L 906.697877 416.433274 
L 916.020246 428.806422 
L 925.342616 433.305877 
L 934.664986 434.384733 
" clip-path="url(#pb6b31af086)" style="fill: none; stroke: #61fc6c; stroke-width: 2.5; stroke-linecap: round"/>
   </g>
   <g id="line2d_14">
    <path d="M 104.974077 168.914335 
L 114.296446 168.914335 
L 123.618816 168.914335 
L 132.941186 168.914335 
L 142.263556 168.914335 
L 151.585926 168.914335 
L 160.908295 168.914335 
L 170.230665 168.914335 
L 179.553035 168.914335 
L 188.875405 168.914335 
L 198.197774 168.890325 
L 207.520144 168.890325 
L 216.842514 168.890325 
L 226.164884 168.938346 
L 235.487253 168.938346 
L 244.809623 168.914335 
L 254.131993 168.890312 
L 263.454363 168.914335 
L 272.776732 169.010459 
L 282.099102 169.15471 
L 291.421472 169.202811 
L 300.743842 169.226992 
L 310.066212 169.275126 
L 319.388581 169.299353 
L 328.710951 169.323714 
L 338.033321 169.275814 
L 347.355691 169.203833 
L 356.67806 169.155693 
L 366.00043 168.962668 
L 375.3228 168.986907 
L 384.64517 169.035466 
L 393.967539 168.890062 
L 403.289909 168.744146 
L 412.612279 168.81695 
L 421.934649 168.670471 
L 431.257018 168.326848 
L 440.579388 168.324073 
L 449.901758 168.074785 
L 459.224128 167.549002 
L 468.546498 166.939369 
L 477.868867 166.041933 
L 487.191237 165.000267 
L 496.513607 163.817016 
L 505.835977 162.471632 
L 515.158346 160.898355 
L 524.480716 158.87855 
L 533.803086 157.179052 
L 543.125456 154.770868 
L 552.447825 152.964993 
L 561.770195 150.358886 
L 571.092565 147.569255 
L 580.414935 143.442887 
L 589.737304 140.397715 
L 599.059674 137.985143 
L 608.382044 134.907402 
L 617.704414 131.811188 
L 627.026784 129.489699 
L 636.349153 128.43235 
L 645.671523 127.966192 
L 654.993893 127.684036 
L 664.316263 128.532181 
L 673.638632 129.211342 
L 682.961002 131.545951 
L 692.283372 136.00647 
L 701.605742 139.790646 
L 710.928111 144.968595 
L 720.250481 150.254651 
L 729.572851 158.20879 
L 738.895221 166.915521 
L 748.21759 176.575337 
L 757.53996 187.939225 
L 766.86233 199.28235 
L 776.1847 210.720294 
L 785.50707 225.018903 
L 794.829439 238.80337 
L 804.151809 251.860019 
L 813.474179 268.551039 
L 822.796549 283.854265 
L 832.118918 301.919504 
L 841.441288 319.951462 
L 850.763658 337.988048 
L 860.086028 357.33785 
L 869.408397 376.125392 
L 878.730767 393.406539 
L 888.053137 406.850349 
L 897.375507 421.419405 
L 906.697877 429.019527 
L 916.020246 432.015103 
L 925.342616 433.737069 
L 934.664986 434.384733 
" clip-path="url(#pb6b31af086)" style="fill: none; stroke: #d2e935; stroke-width: 2.5; stroke-linecap: round"/>
   </g>
   <g id="line2d_15"/>
   <g id="line2d_16"/>
   <g id="line2d_17"/>
   <g id="line2d_18"/>
   <g id="line2d_19">
    <defs>
     <path id="m56aa0f6a5b" d="M 0 4 
C 1.060812 4 2.078319 3.578535 2.828427 2.828427 
C 3.578535 2.078319 4 1.060812 4 0 
C 4 -1.060812 3.578535 -2.078319 2.828427 -2.828427 
C 2.078319 -3.578535 1.060812 -4 0 -4 
C -1.060812 -4 -2.078319 -3.578535 -2.828427 -2.828427 
C -3.578535 -2.078319 -4 -1.060812 -4 0 
C -4 1.060812 -3.578535 2.078319 -2.828427 2.828427 
C -2.078319 3.578535 -1.060812 4 0 4 
z
" style="stroke: #000000; stroke-opacity: 0.5"/>
    </defs>
    <g clip-path="url(#pb6b31af086)">
     <use xlink:href="#m56aa0f6a5b" x="338.033321" y="61.053348" style="fill-opacity: 0.5; stroke: #000000; stroke-opacity: 0.5"/>
    </g>
   </g>
   <g id="line2d_20">
    <g clip-path="url(#pb6b31af086)">
     <use xlink:href="#m56aa0f6a5b" x="235.487253" y="59.615642" style="fill-opacity: 0.5; stroke: #000000; stroke-opacity: 0.5"/>
    </g>
   </g>
   <g id="line2d_21">
    <g clip-path="url(#pb6b31af086)">
     <use xlink:href="#m56aa0f6a5b" x="710.928111" y="111.140702" style="fill-opacity: 0.5; stroke: #000000; stroke-opacity: 0.5"/>
    </g>
   </g>
   <g id="line2d_22">
    <g clip-path="url(#pb6b31af086)">
     <use xlink:href="#m56aa0f6a5b" x="654.993893" y="127.684036" style="fill-opacity: 0.5; stroke: #000000; stroke-opacity: 0.5"/>
    </g>
   </g>
   <g id="patch_3">
    <path d="M 63.489531 453.123187 
L 63.489531 40.877187 
" style="fill: none; stroke: #cccccc; stroke-width: 1.875; stroke-linejoin: miter; stroke-linecap: square"/>
   </g>
   <g id="patch_4">
    <path d="M 976.149531 453.123187 
L 976.149531 40.877187 
" style="fill: none; stroke: #cccccc; stroke-width: 1.875; stroke-linejoin: miter; stroke-linecap: square"/>
   </g>
   <g id="patch_5">
    <path d="M 63.489531 453.123187 
L 976.149531 453.123187 
" style="fill: none; stroke: #cccccc; stroke-width: 1.875; stroke-linejoin: miter; stroke-linecap: square"/>
   </g>
   <g id="patch_6">
    <path d="M 63.489531 40.877187 
L 976.149531 40.877187 
" style="fill: none; stroke: #cccccc; stroke-width: 1.875; stroke-linejoin: miter; stroke-linecap: square"/>
   </g>
   <g id="text_13">
    <g id="patch_7">
     <path d="M 296.88504 54.725067 
L 379.181602 54.725067 
Q 380.981602 54.725067 380.981602 52.925067 
L 380.981602 34.136723 
Q 380.981602 32.336723 379.181602 32.336723 
L 296.88504 32.336723 
Q 295.08504 32.336723 295.08504 34.136723 
L 295.08504 52.925067 
Q 295.08504 54.725067 296.88504 54.725067 
z
" style="fill: #ffffff; opacity: 0.6"/>
    </g>
    <!-- All-MPNet-Base-v2 -->
    <g transform="translate(296.88504 40.975317) scale(0.09 -0.09)">
     <defs>
      <path id="DejaVuSans-41" d="M 2188 4044 
L 1331 1722 
L 3047 1722 
L 2188 4044 
z
M 1831 4666 
L 2547 4666 
L 4325 0 
L 3669 0 
L 3244 1197 
L 1141 1197 
L 716 0 
L 50 0 
L 1831 4666 
z
" transform="scale(0.015625)"/>
      <path id="DejaVuSans-2d" d="M 313 2009 
L 1997 2009 
L 1997 1497 
L 313 1497 
L 313 2009 
z
" transform="scale(0.015625)"/>
      <path id="DejaVuSans-4d" d="M 628 4666 
L 1569 4666 
L 2759 1491 
L 3956 4666 
L 4897 4666 
L 4897 0 
L 4281 0 
L 4281 4097 
L 3078 897 
L 2444 897 
L 1241 4097 
L 1241 0 
L 628 0 
L 628 4666 
z
" transform="scale(0.015625)"/>
      <path id="DejaVuSans-50" d="M 1259 4147 
L 1259 2394 
L 2053 2394 
Q 2494 2394 2734 2622 
Q 2975 2850 2975 3272 
Q 2975 3691 2734 3919 
Q 2494 4147 2053 4147 
L 1259 4147 
z
M 628 4666 
L 2053 4666 
Q 2838 4666 3239 4311 
Q 3641 3956 3641 3272 
Q 3641 2581 3239 2228 
Q 2838 1875 2053 1875 
L 1259 1875 
L 1259 0 
L 628 0 
L 628 4666 
z
" transform="scale(0.015625)"/>
      <path id="DejaVuSans-4e" d="M 628 4666 
L 1478 4666 
L 3547 763 
L 3547 4666 
L 4159 4666 
L 4159 0 
L 3309 0 
L 1241 3903 
L 1241 0 
L 628 0 
L 628 4666 
z
" transform="scale(0.015625)"/>
      <path id="DejaVuSans-42" d="M 1259 2228 
L 1259 519 
L 2272 519 
Q 2781 519 3026 730 
Q 3272 941 3272 1375 
Q 3272 1813 3026 2020 
Q 2781 2228 2272 2228 
L 1259 2228 
z
M 1259 4147 
L 1259 2741 
L 2194 2741 
Q 2656 2741 2882 2914 
Q 3109 3088 3109 3444 
Q 3109 3797 2882 3972 
Q 2656 4147 2194 4147 
L 1259 4147 
z
M 628 4666 
L 2241 4666 
Q 2963 4666 3353 4366 
Q 3744 4066 3744 3513 
Q 3744 3084 3544 2831 
Q 3344 2578 2956 2516 
Q 3422 2416 3680 2098 
Q 3938 1781 3938 1306 
Q 3938 681 3513 340 
Q 3088 0 2303 0 
L 628 0 
L 628 4666 
z
" transform="scale(0.015625)"/>
      <path id="DejaVuSans-76" d="M 191 3500 
L 800 3500 
L 1894 563 
L 2988 3500 
L 3597 3500 
L 2284 0 
L 1503 0 
L 191 3500 
z
" transform="scale(0.015625)"/>
     </defs>
     <use xlink:href="#DejaVuSans-41"/>
     <use xlink:href="#DejaVuSans-6c" transform="translate(68.408203 0)"/>
     <use xlink:href="#DejaVuSans-6c" transform="translate(96.191406 0)"/>
     <use xlink:href="#DejaVuSans-2d" transform="translate(123.974609 0)"/>
     <use xlink:href="#DejaVuSans-4d" transform="translate(160.058594 0)"/>
     <use xlink:href="#DejaVuSans-50" transform="translate(246.337891 0)"/>
     <use xlink:href="#DejaVuSans-4e" transform="translate(306.640625 0)"/>
     <use xlink:href="#DejaVuSans-65" transform="translate(381.445312 0)"/>
     <use xlink:href="#DejaVuSans-74" transform="translate(442.96875 0)"/>
     <use xlink:href="#DejaVuSans-2d" transform="translate(482.177734 0)"/>
     <use xlink:href="#DejaVuSans-42" transform="translate(514.636719 0)"/>
     <use xlink:href="#DejaVuSans-61" transform="translate(583.240234 0)"/>
     <use xlink:href="#DejaVuSans-73" transform="translate(644.519531 0)"/>
     <use xlink:href="#DejaVuSans-65" transform="translate(696.619141 0)"/>
     <use xlink:href="#DejaVuSans-2d" transform="translate(758.142578 0)"/>
     <use xlink:href="#DejaVuSans-76" transform="translate(791.601562 0)"/>
     <use xlink:href="#DejaVuSans-32" transform="translate(850.78125 0)"/>
    </g>
    <!-- (F1=0.94 @ 0.35) -->
    <g transform="translate(297.900352 51.053348) scale(0.09 -0.09)">
     <defs>
      <path id="DejaVuSans-28" d="M 1984 4856 
Q 1566 4138 1362 3434 
Q 1159 2731 1159 2009 
Q 1159 1288 1364 580 
Q 1569 -128 1984 -844 
L 1484 -844 
Q 1016 -109 783 600 
Q 550 1309 550 2009 
Q 550 2706 781 3412 
Q 1013 4119 1484 4856 
L 1984 4856 
z
" transform="scale(0.015625)"/>
      <path id="DejaVuSans-3d" d="M 678 2906 
L 4684 2906 
L 4684 2381 
L 678 2381 
L 678 2906 
z
M 678 1631 
L 4684 1631 
L 4684 1100 
L 678 1100 
L 678 1631 
z
" transform="scale(0.015625)"/>
      <path id="DejaVuSans-39" d="M 703 97 
L 703 672 
Q 941 559 1184 500 
Q 1428 441 1663 441 
Q 2288 441 2617 861 
Q 2947 1281 2994 2138 
Q 2813 1869 2534 1725 
Q 2256 1581 1919 1581 
Q 1219 1581 811 2004 
Q 403 2428 403 3163 
Q 403 3881 828 4315 
Q 1253 4750 1959 4750 
Q 2769 4750 3195 4129 
Q 3622 3509 3622 2328 
Q 3622 1225 3098 567 
Q 2575 -91 1691 -91 
Q 1453 -91 1209 -44 
Q 966 3 703 97 
z
M 1959 2075 
Q 2384 2075 2632 2365 
Q 2881 2656 2881 3163 
Q 2881 3666 2632 3958 
Q 2384 4250 1959 4250 
Q 1534 4250 1286 3958 
Q 1038 3666 1038 3163 
Q 1038 2656 1286 2365 
Q 1534 2075 1959 2075 
z
" transform="scale(0.015625)"/>
      <path id="DejaVuSans-40" d="M 2381 1678 
Q 2381 1231 2603 976 
Q 2825 722 3213 722 
Q 3597 722 3817 978 
Q 4038 1234 4038 1678 
Q 4038 2116 3813 2373 
Q 3588 2631 3206 2631 
Q 2828 2631 2604 2375 
Q 2381 2119 2381 1678 
z
M 4084 744 
Q 3897 503 3655 389 
Q 3413 275 3091 275 
Q 2553 275 2217 664 
Q 1881 1053 1881 1678 
Q 1881 2303 2218 2693 
Q 2556 3084 3091 3084 
Q 3413 3084 3656 2967 
Q 3900 2850 4084 2613 
L 4084 3022 
L 4531 3022 
L 4531 722 
Q 4988 791 5245 1139 
Q 5503 1488 5503 2041 
Q 5503 2375 5404 2669 
Q 5306 2963 5106 3213 
Q 4781 3622 4314 3839 
Q 3847 4056 3297 4056 
Q 2913 4056 2559 3954 
Q 2206 3853 1906 3653 
Q 1416 3334 1139 2817 
Q 863 2300 863 1697 
Q 863 1200 1042 765 
Q 1222 331 1563 0 
Q 1891 -325 2322 -495 
Q 2753 -666 3244 -666 
Q 3647 -666 4036 -530 
Q 4425 -394 4750 -141 
L 5031 -488 
Q 4641 -791 4180 -952 
Q 3719 -1113 3244 -1113 
Q 2666 -1113 2153 -908 
Q 1641 -703 1241 -313 
Q 841 78 631 592 
Q 422 1106 422 1697 
Q 422 2266 634 2781 
Q 847 3297 1241 3688 
Q 1644 4084 2172 4295 
Q 2700 4506 3291 4506 
Q 3953 4506 4520 4234 
Q 5088 3963 5472 3463 
Q 5706 3156 5829 2797 
Q 5953 2438 5953 2053 
Q 5953 1231 5456 756 
Q 4959 281 4084 263 
L 4084 744 
z
" transform="scale(0.015625)"/>
      <path id="DejaVuSans-33" d="M 2597 2516 
Q 3050 2419 3304 2112 
Q 3559 1806 3559 1356 
Q 3559 666 3084 287 
Q 2609 -91 1734 -91 
Q 1441 -91 1130 -33 
Q 819 25 488 141 
L 488 750 
Q 750 597 1062 519 
Q 1375 441 1716 441 
Q 2309 441 2620 675 
Q 2931 909 2931 1356 
Q 2931 1769 2642 2001 
Q 2353 2234 1838 2234 
L 1294 2234 
L 1294 2753 
L 1863 2753 
Q 2328 2753 2575 2939 
Q 2822 3125 2822 3475 
Q 2822 3834 2567 4026 
Q 2313 4219 1838 4219 
Q 1578 4219 1281 4162 
Q 984 4106 628 3988 
L 628 4550 
Q 988 4650 1302 4700 
Q 1616 4750 1894 4750 
Q 2613 4750 3031 4423 
Q 3450 4097 3450 3541 
Q 3450 3153 3228 2886 
Q 3006 2619 2597 2516 
z
" transform="scale(0.015625)"/>
      <path id="DejaVuSans-35" d="M 691 4666 
L 3169 4666 
L 3169 4134 
L 1269 4134 
L 1269 2991 
Q 1406 3038 1543 3061 
Q 1681 3084 1819 3084 
Q 2600 3084 3056 2656 
Q 3513 2228 3513 1497 
Q 3513 744 3044 326 
Q 2575 -91 1722 -91 
Q 1428 -91 1123 -41 
Q 819 9 494 109 
L 494 744 
Q 775 591 1075 516 
Q 1375 441 1709 441 
Q 2250 441 2565 725 
Q 2881 1009 2881 1497 
Q 2881 1984 2565 2268 
Q 2250 2553 1709 2553 
Q 1456 2553 1204 2497 
Q 953 2441 691 2322 
L 691 4666 
z
" transform="scale(0.015625)"/>
      <path id="DejaVuSans-29" d="M 513 4856 
L 1013 4856 
Q 1481 4119 1714 3412 
Q 1947 2706 1947 2009 
Q 1947 1309 1714 600 
Q 1481 -109 1013 -844 
L 513 -844 
Q 928 -128 1133 580 
Q 1338 1288 1338 2009 
Q 1338 2731 1133 3434 
Q 928 4138 513 4856 
z
" transform="scale(0.015625)"/>
     </defs>
     <use xlink:href="#DejaVuSans-28"/>
     <use xlink:href="#DejaVuSans-46" transform="translate(39.013672 0)"/>
     <use xlink:href="#DejaVuSans-31" transform="translate(96.533203 0)"/>
     <use xlink:href="#DejaVuSans-3d" transform="translate(160.15625 0)"/>
     <use xlink:href="#DejaVuSans-30" transform="translate(243.945312 0)"/>
     <use xlink:href="#DejaVuSans-2e" transform="translate(307.568359 0)"/>
     <use xlink:href="#DejaVuSans-39" transform="translate(339.355469 0)"/>
     <use xlink:href="#DejaVuSans-34" transform="translate(402.978516 0)"/>
     <use xlink:href="#DejaVuSans-20" transform="translate(466.601562 0)"/>
     <use xlink:href="#DejaVuSans-40" transform="translate(498.388672 0)"/>
     <use xlink:href="#DejaVuSans-20" transform="translate(598.388672 0)"/>
     <use xlink:href="#DejaVuSans-30" transform="translate(630.175781 0)"/>
     <use xlink:href="#DejaVuSans-2e" transform="translate(693.798828 0)"/>
     <use xlink:href="#DejaVuSans-33" transform="translate(725.585938 0)"/>
     <use xlink:href="#DejaVuSans-35" transform="translate(789.208984 0)"/>
     <use xlink:href="#DejaVuSans-29" transform="translate(852.832031 0)"/>
    </g>
   </g>
   <g id="text_14">
    <g id="patch_8">
     <path d="M 194.563972 88.287361 
L 276.410535 88.287361 
Q 278.210535 88.287361 278.210535 86.487361 
L 278.210535 67.699017 
Q 278.210535 65.899017 276.410535 65.899017 
L 194.563972 65.899017 
Q 192.763972 65.899017 192.763972 67.699017 
L 192.763972 86.487361 
Q 192.763972 88.287361 194.563972 88.287361 
z
" style="fill: #ffffff; opacity: 0.6"/>
    </g>
    <!-- MPNet-Personality -->
    <g transform="translate(194.563972 74.537611) scale(0.09 -0.09)">
     <use xlink:href="#DejaVuSans-4d"/>
     <use xlink:href="#DejaVuSans-50" transform="translate(86.279297 0)"/>
     <use xlink:href="#DejaVuSans-4e" transform="translate(146.582031 0)"/>
     <use xlink:href="#DejaVuSans-65" transform="translate(221.386719 0)"/>
     <use xlink:href="#DejaVuSans-74" transform="translate(282.910156 0)"/>
     <use xlink:href="#DejaVuSans-2d" transform="translate(322.119141 0)"/>
     <use xlink:href="#DejaVuSans-50" transform="translate(358.203125 0)"/>
     <use xlink:href="#DejaVuSans-65" transform="translate(414.880859 0)"/>
     <use xlink:href="#DejaVuSans-72" transform="translate(476.404297 0)"/>
     <use xlink:href="#DejaVuSans-73" transform="translate(517.517578 0)"/>
     <use xlink:href="#DejaVuSans-6f" transform="translate(569.617188 0)"/>
     <use xlink:href="#DejaVuSans-6e" transform="translate(630.798828 0)"/>
     <use xlink:href="#DejaVuSans-61" transform="translate(694.177734 0)"/>
     <use xlink:href="#DejaVuSans-6c" transform="translate(755.457031 0)"/>
     <use xlink:href="#DejaVuSans-69" transform="translate(783.240234 0)"/>
     <use xlink:href="#DejaVuSans-74" transform="translate(811.023438 0)"/>
     <use xlink:href="#DejaVuSans-79" transform="translate(850.232422 0)"/>
    </g>
    <!-- (F1=0.94 @ 0.24) -->
    <g transform="translate(195.354285 84.615642) scale(0.09 -0.09)">
     <use xlink:href="#DejaVuSans-28"/>
     <use xlink:href="#DejaVuSans-46" transform="translate(39.013672 0)"/>
     <use xlink:href="#DejaVuSans-31" transform="translate(96.533203 0)"/>
     <use xlink:href="#DejaVuSans-3d" transform="translate(160.15625 0)"/>
     <use xlink:href="#DejaVuSans-30" transform="translate(243.945312 0)"/>
     <use xlink:href="#DejaVuSans-2e" transform="translate(307.568359 0)"/>
     <use xlink:href="#DejaVuSans-39" transform="translate(339.355469 0)"/>
     <use xlink:href="#DejaVuSans-34" transform="translate(402.978516 0)"/>
     <use xlink:href="#DejaVuSans-20" transform="translate(466.601562 0)"/>
     <use xlink:href="#DejaVuSans-40" transform="translate(498.388672 0)"/>
     <use xlink:href="#DejaVuSans-20" transform="translate(598.388672 0)"/>
     <use xlink:href="#DejaVuSans-30" transform="translate(630.175781 0)"/>
     <use xlink:href="#DejaVuSans-2e" transform="translate(693.798828 0)"/>
     <use xlink:href="#DejaVuSans-32" transform="translate(725.585938 0)"/>
     <use xlink:href="#DejaVuSans-34" transform="translate(789.208984 0)"/>
     <use xlink:href="#DejaVuSans-29" transform="translate(852.832031 0)"/>
    </g>
   </g>
   <g id="text_15">
    <g id="patch_9">
     <path d="M 667.772408 104.81242 
L 754.083815 104.81242 
Q 755.883815 104.81242 755.883815 103.01242 
L 755.883815 84.224077 
Q 755.883815 82.424077 754.083815 82.424077 
L 667.772408 82.424077 
Q 665.972408 82.424077 665.972408 84.224077 
L 665.972408 103.01242 
Q 665.972408 104.81242 667.772408 104.81242 
z
" style="fill: #ffffff; opacity: 0.6"/>
    </g>
    <!-- SciBERT (SciVocab) -->
    <g transform="translate(667.772408 91.06267) scale(0.09 -0.09)">
     <defs>
      <path id="DejaVuSans-45" d="M 628 4666 
L 3578 4666 
L 3578 4134 
L 1259 4134 
L 1259 2753 
L 3481 2753 
L 3481 2222 
L 1259 2222 
L 1259 531 
L 3634 531 
L 3634 0 
L 628 0 
L 628 4666 
z
" transform="scale(0.015625)"/>
      <path id="DejaVuSans-52" d="M 2841 2188 
Q 3044 2119 3236 1894 
Q 3428 1669 3622 1275 
L 4263 0 
L 3584 0 
L 2988 1197 
Q 2756 1666 2539 1819 
Q 2322 1972 1947 1972 
L 1259 1972 
L 1259 0 
L 628 0 
L 628 4666 
L 2053 4666 
Q 2853 4666 3247 4331 
Q 3641 3997 3641 3322 
Q 3641 2881 3436 2590 
Q 3231 2300 2841 2188 
z
M 1259 4147 
L 1259 2491 
L 2053 2491 
Q 2509 2491 2742 2702 
Q 2975 2913 2975 3322 
Q 2975 3731 2742 3939 
Q 2509 4147 2053 4147 
L 1259 4147 
z
" transform="scale(0.015625)"/>
      <path id="DejaVuSans-56" d="M 1831 0 
L 50 4666 
L 709 4666 
L 2188 738 
L 3669 4666 
L 4325 4666 
L 2547 0 
L 1831 0 
z
" transform="scale(0.015625)"/>
      <path id="DejaVuSans-62" d="M 3116 1747 
Q 3116 2381 2855 2742 
Q 2594 3103 2138 3103 
Q 1681 3103 1420 2742 
Q 1159 2381 1159 1747 
Q 1159 1113 1420 752 
Q 1681 391 2138 391 
Q 2594 391 2855 752 
Q 3116 1113 3116 1747 
z
M 1159 2969 
Q 1341 3281 1617 3432 
Q 1894 3584 2278 3584 
Q 2916 3584 3314 3078 
Q 3713 2572 3713 1747 
Q 3713 922 3314 415 
Q 2916 -91 2278 -91 
Q 1894 -91 1617 61 
Q 1341 213 1159 525 
L 1159 0 
L 581 0 
L 581 4863 
L 1159 4863 
L 1159 2969 
z
" transform="scale(0.015625)"/>
     </defs>
     <use xlink:href="#DejaVuSans-53"/>
     <use xlink:href="#DejaVuSans-63" transform="translate(63.476562 0)"/>
     <use xlink:href="#DejaVuSans-69" transform="translate(118.457031 0)"/>
     <use xlink:href="#DejaVuSans-42" transform="translate(146.240234 0)"/>
     <use xlink:href="#DejaVuSans-45" transform="translate(214.84375 0)"/>
     <use xlink:href="#DejaVuSans-52" transform="translate(278.027344 0)"/>
     <use xlink:href="#DejaVuSans-54" transform="translate(340.259766 0)"/>
     <use xlink:href="#DejaVuSans-20" transform="translate(401.34375 0)"/>
     <use xlink:href="#DejaVuSans-28" transform="translate(433.130859 0)"/>
     <use xlink:href="#DejaVuSans-53" transform="translate(472.144531 0)"/>
     <use xlink:href="#DejaVuSans-63" transform="translate(535.621094 0)"/>
     <use xlink:href="#DejaVuSans-69" transform="translate(590.601562 0)"/>
     <use xlink:href="#DejaVuSans-56" transform="translate(618.384766 0)"/>
     <use xlink:href="#DejaVuSans-6f" transform="translate(679.042969 0)"/>
     <use xlink:href="#DejaVuSans-63" transform="translate(740.224609 0)"/>
     <use xlink:href="#DejaVuSans-61" transform="translate(795.205078 0)"/>
     <use xlink:href="#DejaVuSans-62" transform="translate(856.484375 0)"/>
     <use xlink:href="#DejaVuSans-29" transform="translate(919.960938 0)"/>
    </g>
    <!-- (F1=0.81 @ 0.75) -->
    <g transform="translate(670.795143 101.140702) scale(0.09 -0.09)">
     <defs>
      <path id="DejaVuSans-37" d="M 525 4666 
L 3525 4666 
L 3525 4397 
L 1831 0 
L 1172 0 
L 2766 4134 
L 525 4134 
L 525 4666 
z
" transform="scale(0.015625)"/>
     </defs>
     <use xlink:href="#DejaVuSans-28"/>
     <use xlink:href="#DejaVuSans-46" transform="translate(39.013672 0)"/>
     <use xlink:href="#DejaVuSans-31" transform="translate(96.533203 0)"/>
     <use xlink:href="#DejaVuSans-3d" transform="translate(160.15625 0)"/>
     <use xlink:href="#DejaVuSans-30" transform="translate(243.945312 0)"/>
     <use xlink:href="#DejaVuSans-2e" transform="translate(307.568359 0)"/>
     <use xlink:href="#DejaVuSans-38" transform="translate(339.355469 0)"/>
     <use xlink:href="#DejaVuSans-31" transform="translate(402.978516 0)"/>
     <use xlink:href="#DejaVuSans-20" transform="translate(466.601562 0)"/>
     <use xlink:href="#DejaVuSans-40" transform="translate(498.388672 0)"/>
     <use xlink:href="#DejaVuSans-20" transform="translate(598.388672 0)"/>
     <use xlink:href="#DejaVuSans-30" transform="translate(630.175781 0)"/>
     <use xlink:href="#DejaVuSans-2e" transform="translate(693.798828 0)"/>
     <use xlink:href="#DejaVuSans-37" transform="translate(725.585938 0)"/>
     <use xlink:href="#DejaVuSans-35" transform="translate(789.208984 0)"/>
     <use xlink:href="#DejaVuSans-29" transform="translate(852.832031 0)"/>
    </g>
   </g>
   <g id="text_16">
    <g id="patch_10">
     <path d="M 614.860924 156.355754 
L 695.126862 156.355754 
Q 696.926862 156.355754 696.926862 154.555754 
L 696.926862 135.767411 
Q 696.926862 133.967411 695.126862 133.967411 
L 614.860924 133.967411 
Q 613.060924 133.967411 613.060924 135.767411 
L 613.060924 154.555754 
Q 613.060924 156.355754 614.860924 156.355754 
z
" style="fill: #ffffff; opacity: 0.6"/>
    </g>
    <!-- BERT Base -->
    <g transform="translate(631.125612 142.606004) scale(0.09 -0.09)">
     <use xlink:href="#DejaVuSans-42"/>
     <use xlink:href="#DejaVuSans-45" transform="translate(68.603516 0)"/>
     <use xlink:href="#DejaVuSans-52" transform="translate(131.787109 0)"/>
     <use xlink:href="#DejaVuSans-54" transform="translate(194.019531 0)"/>
     <use xlink:href="#DejaVuSans-20" transform="translate(255.103516 0)"/>
     <use xlink:href="#DejaVuSans-42" transform="translate(286.890625 0)"/>
     <use xlink:href="#DejaVuSans-61" transform="translate(355.494141 0)"/>
     <use xlink:href="#DejaVuSans-73" transform="translate(416.773438 0)"/>
     <use xlink:href="#DejaVuSans-65" transform="translate(468.873047 0)"/>
    </g>
    <!-- (F1=0.77 @ 0.69) -->
    <g transform="translate(614.860924 152.684036) scale(0.09 -0.09)">
     <use xlink:href="#DejaVuSans-28"/>
     <use xlink:href="#DejaVuSans-46" transform="translate(39.013672 0)"/>
     <use xlink:href="#DejaVuSans-31" transform="translate(96.533203 0)"/>
     <use xlink:href="#DejaVuSans-3d" transform="translate(160.15625 0)"/>
     <use xlink:href="#DejaVuSans-30" transform="translate(243.945312 0)"/>
     <use xlink:href="#DejaVuSans-2e" transform="translate(307.568359 0)"/>
     <use xlink:href="#DejaVuSans-37" transform="translate(339.355469 0)"/>
     <use xlink:href="#DejaVuSans-37" transform="translate(402.978516 0)"/>
     <use xlink:href="#DejaVuSans-20" transform="translate(466.601562 0)"/>
     <use xlink:href="#DejaVuSans-40" transform="translate(498.388672 0)"/>
     <use xlink:href="#DejaVuSans-20" transform="translate(598.388672 0)"/>
     <use xlink:href="#DejaVuSans-30" transform="translate(630.175781 0)"/>
     <use xlink:href="#DejaVuSans-2e" transform="translate(693.798828 0)"/>
     <use xlink:href="#DejaVuSans-36" transform="translate(725.585938 0)"/>
     <use xlink:href="#DejaVuSans-39" transform="translate(789.208984 0)"/>
     <use xlink:href="#DejaVuSans-29" transform="translate(852.832031 0)"/>
    </g>
   </g>
   <g id="text_17">
    <!-- F1 Score Comparison Across Models -->
    <g style="fill: #262626" transform="translate(336.419219 20.877187) scale(0.18 -0.18)">
     <defs>
      <path id="DejaVuSans-Bold-46" d="M 588 4666 
L 3834 4666 
L 3834 3756 
L 1791 3756 
L 1791 2888 
L 3713 2888 
L 3713 1978 
L 1791 1978 
L 1791 0 
L 588 0 
L 588 4666 
z
" transform="scale(0.015625)"/>
      <path id="DejaVuSans-Bold-31" d="M 750 831 
L 1813 831 
L 1813 3847 
L 722 3622 
L 722 4441 
L 1806 4666 
L 2950 4666 
L 2950 831 
L 4013 831 
L 4013 0 
L 750 0 
L 750 831 
z
" transform="scale(0.015625)"/>
      <path id="DejaVuSans-Bold-20" transform="scale(0.015625)"/>
      <path id="DejaVuSans-Bold-53" d="M 3834 4519 
L 3834 3531 
Q 3450 3703 3084 3790 
Q 2719 3878 2394 3878 
Q 1963 3878 1756 3759 
Q 1550 3641 1550 3391 
Q 1550 3203 1689 3098 
Q 1828 2994 2194 2919 
L 2706 2816 
Q 3484 2659 3812 2340 
Q 4141 2022 4141 1434 
Q 4141 663 3683 286 
Q 3225 -91 2284 -91 
Q 1841 -91 1394 -6 
Q 947 78 500 244 
L 500 1259 
Q 947 1022 1364 901 
Q 1781 781 2169 781 
Q 2563 781 2772 912 
Q 2981 1044 2981 1288 
Q 2981 1506 2839 1625 
Q 2697 1744 2272 1838 
L 1806 1941 
Q 1106 2091 782 2419 
Q 459 2747 459 3303 
Q 459 4000 909 4375 
Q 1359 4750 2203 4750 
Q 2588 4750 2994 4692 
Q 3400 4634 3834 4519 
z
" transform="scale(0.015625)"/>
      <path id="DejaVuSans-Bold-63" d="M 3366 3391 
L 3366 2478 
Q 3138 2634 2908 2709 
Q 2678 2784 2431 2784 
Q 1963 2784 1702 2511 
Q 1441 2238 1441 1747 
Q 1441 1256 1702 982 
Q 1963 709 2431 709 
Q 2694 709 2930 787 
Q 3166 866 3366 1019 
L 3366 103 
Q 3103 6 2833 -42 
Q 2563 -91 2291 -91 
Q 1344 -91 809 395 
Q 275 881 275 1747 
Q 275 2613 809 3098 
Q 1344 3584 2291 3584 
Q 2566 3584 2833 3536 
Q 3100 3488 3366 3391 
z
" transform="scale(0.015625)"/>
      <path id="DejaVuSans-Bold-6f" d="M 2203 2784 
Q 1831 2784 1636 2517 
Q 1441 2250 1441 1747 
Q 1441 1244 1636 976 
Q 1831 709 2203 709 
Q 2569 709 2762 976 
Q 2956 1244 2956 1747 
Q 2956 2250 2762 2517 
Q 2569 2784 2203 2784 
z
M 2203 3584 
Q 3106 3584 3614 3096 
Q 4122 2609 4122 1747 
Q 4122 884 3614 396 
Q 3106 -91 2203 -91 
Q 1297 -91 786 396 
Q 275 884 275 1747 
Q 275 2609 786 3096 
Q 1297 3584 2203 3584 
z
" transform="scale(0.015625)"/>
      <path id="DejaVuSans-Bold-72" d="M 3138 2547 
Q 2991 2616 2845 2648 
Q 2700 2681 2553 2681 
Q 2122 2681 1889 2404 
Q 1656 2128 1656 1613 
L 1656 0 
L 538 0 
L 538 3500 
L 1656 3500 
L 1656 2925 
Q 1872 3269 2151 3426 
Q 2431 3584 2822 3584 
Q 2878 3584 2943 3579 
Q 3009 3575 3134 3559 
L 3138 2547 
z
" transform="scale(0.015625)"/>
      <path id="DejaVuSans-Bold-65" d="M 4031 1759 
L 4031 1441 
L 1416 1441 
Q 1456 1047 1700 850 
Q 1944 653 2381 653 
Q 2734 653 3104 758 
Q 3475 863 3866 1075 
L 3866 213 
Q 3469 63 3072 -14 
Q 2675 -91 2278 -91 
Q 1328 -91 801 392 
Q 275 875 275 1747 
Q 275 2603 792 3093 
Q 1309 3584 2216 3584 
Q 3041 3584 3536 3087 
Q 4031 2591 4031 1759 
z
M 2881 2131 
Q 2881 2450 2695 2645 
Q 2509 2841 2209 2841 
Q 1884 2841 1681 2658 
Q 1478 2475 1428 2131 
L 2881 2131 
z
" transform="scale(0.015625)"/>
      <path id="DejaVuSans-Bold-43" d="M 4288 256 
Q 3956 84 3597 -3 
Q 3238 -91 2847 -91 
Q 1681 -91 1000 561 
Q 319 1213 319 2328 
Q 319 3447 1000 4098 
Q 1681 4750 2847 4750 
Q 3238 4750 3597 4662 
Q 3956 4575 4288 4403 
L 4288 3438 
Q 3953 3666 3628 3772 
Q 3303 3878 2944 3878 
Q 2300 3878 1931 3465 
Q 1563 3053 1563 2328 
Q 1563 1606 1931 1193 
Q 2300 781 2944 781 
Q 3303 781 3628 887 
Q 3953 994 4288 1222 
L 4288 256 
z
" transform="scale(0.015625)"/>
      <path id="DejaVuSans-Bold-6d" d="M 3781 2919 
Q 3994 3244 4286 3414 
Q 4578 3584 4928 3584 
Q 5531 3584 5847 3212 
Q 6163 2841 6163 2131 
L 6163 0 
L 5038 0 
L 5038 1825 
Q 5041 1866 5042 1909 
Q 5044 1953 5044 2034 
Q 5044 2406 4934 2573 
Q 4825 2741 4581 2741 
Q 4263 2741 4089 2478 
Q 3916 2216 3909 1719 
L 3909 0 
L 2784 0 
L 2784 1825 
Q 2784 2406 2684 2573 
Q 2584 2741 2328 2741 
Q 2006 2741 1831 2477 
Q 1656 2213 1656 1722 
L 1656 0 
L 531 0 
L 531 3500 
L 1656 3500 
L 1656 2988 
Q 1863 3284 2130 3434 
Q 2397 3584 2719 3584 
Q 3081 3584 3359 3409 
Q 3638 3234 3781 2919 
z
" transform="scale(0.015625)"/>
      <path id="DejaVuSans-Bold-70" d="M 1656 506 
L 1656 -1331 
L 538 -1331 
L 538 3500 
L 1656 3500 
L 1656 2988 
Q 1888 3294 2169 3439 
Q 2450 3584 2816 3584 
Q 3463 3584 3878 3070 
Q 4294 2556 4294 1747 
Q 4294 938 3878 423 
Q 3463 -91 2816 -91 
Q 2450 -91 2169 54 
Q 1888 200 1656 506 
z
M 2400 2772 
Q 2041 2772 1848 2508 
Q 1656 2244 1656 1747 
Q 1656 1250 1848 986 
Q 2041 722 2400 722 
Q 2759 722 2948 984 
Q 3138 1247 3138 1747 
Q 3138 2247 2948 2509 
Q 2759 2772 2400 2772 
z
" transform="scale(0.015625)"/>
      <path id="DejaVuSans-Bold-61" d="M 2106 1575 
Q 1756 1575 1579 1456 
Q 1403 1338 1403 1106 
Q 1403 894 1545 773 
Q 1688 653 1941 653 
Q 2256 653 2472 879 
Q 2688 1106 2688 1447 
L 2688 1575 
L 2106 1575 
z
M 3816 1997 
L 3816 0 
L 2688 0 
L 2688 519 
Q 2463 200 2181 54 
Q 1900 -91 1497 -91 
Q 953 -91 614 226 
Q 275 544 275 1050 
Q 275 1666 698 1953 
Q 1122 2241 2028 2241 
L 2688 2241 
L 2688 2328 
Q 2688 2594 2478 2717 
Q 2269 2841 1825 2841 
Q 1466 2841 1156 2769 
Q 847 2697 581 2553 
L 581 3406 
Q 941 3494 1303 3539 
Q 1666 3584 2028 3584 
Q 2975 3584 3395 3211 
Q 3816 2838 3816 1997 
z
" transform="scale(0.015625)"/>
      <path id="DejaVuSans-Bold-69" d="M 538 3500 
L 1656 3500 
L 1656 0 
L 538 0 
L 538 3500 
z
M 538 4863 
L 1656 4863 
L 1656 3950 
L 538 3950 
L 538 4863 
z
" transform="scale(0.015625)"/>
      <path id="DejaVuSans-Bold-73" d="M 3272 3391 
L 3272 2541 
Q 2913 2691 2578 2766 
Q 2244 2841 1947 2841 
Q 1628 2841 1473 2761 
Q 1319 2681 1319 2516 
Q 1319 2381 1436 2309 
Q 1553 2238 1856 2203 
L 2053 2175 
Q 2913 2066 3209 1816 
Q 3506 1566 3506 1031 
Q 3506 472 3093 190 
Q 2681 -91 1863 -91 
Q 1516 -91 1145 -36 
Q 775 19 384 128 
L 384 978 
Q 719 816 1070 734 
Q 1422 653 1784 653 
Q 2113 653 2278 743 
Q 2444 834 2444 1013 
Q 2444 1163 2330 1236 
Q 2216 1309 1875 1350 
L 1678 1375 
Q 931 1469 631 1722 
Q 331 1975 331 2491 
Q 331 3047 712 3315 
Q 1094 3584 1881 3584 
Q 2191 3584 2531 3537 
Q 2872 3491 3272 3391 
z
" transform="scale(0.015625)"/>
      <path id="DejaVuSans-Bold-6e" d="M 4056 2131 
L 4056 0 
L 2931 0 
L 2931 347 
L 2931 1631 
Q 2931 2084 2911 2256 
Q 2891 2428 2841 2509 
Q 2775 2619 2662 2680 
Q 2550 2741 2406 2741 
Q 2056 2741 1856 2470 
Q 1656 2200 1656 1722 
L 1656 0 
L 538 0 
L 538 3500 
L 1656 3500 
L 1656 2988 
Q 1909 3294 2193 3439 
Q 2478 3584 2822 3584 
Q 3428 3584 3742 3212 
Q 4056 2841 4056 2131 
z
" transform="scale(0.015625)"/>
      <path id="DejaVuSans-Bold-41" d="M 3419 850 
L 1538 850 
L 1241 0 
L 31 0 
L 1759 4666 
L 3194 4666 
L 4922 0 
L 3713 0 
L 3419 850 
z
M 1838 1716 
L 3116 1716 
L 2478 3572 
L 1838 1716 
z
" transform="scale(0.015625)"/>
      <path id="DejaVuSans-Bold-4d" d="M 588 4666 
L 2119 4666 
L 3181 2169 
L 4250 4666 
L 5778 4666 
L 5778 0 
L 4641 0 
L 4641 3413 
L 3566 897 
L 2803 897 
L 1728 3413 
L 1728 0 
L 588 0 
L 588 4666 
z
" transform="scale(0.015625)"/>
      <path id="DejaVuSans-Bold-64" d="M 2919 2988 
L 2919 4863 
L 4044 4863 
L 4044 0 
L 2919 0 
L 2919 506 
Q 2688 197 2409 53 
Q 2131 -91 1766 -91 
Q 1119 -91 703 423 
Q 288 938 288 1747 
Q 288 2556 703 3070 
Q 1119 3584 1766 3584 
Q 2128 3584 2408 3439 
Q 2688 3294 2919 2988 
z
M 2181 722 
Q 2541 722 2730 984 
Q 2919 1247 2919 1747 
Q 2919 2247 2730 2509 
Q 2541 2772 2181 2772 
Q 1825 2772 1636 2509 
Q 1447 2247 1447 1747 
Q 1447 1247 1636 984 
Q 1825 722 2181 722 
z
" transform="scale(0.015625)"/>
      <path id="DejaVuSans-Bold-6c" d="M 538 4863 
L 1656 4863 
L 1656 0 
L 538 0 
L 538 4863 
z
" transform="scale(0.015625)"/>
     </defs>
     <use xlink:href="#DejaVuSans-Bold-46"/>
     <use xlink:href="#DejaVuSans-Bold-31" transform="translate(68.310547 0)"/>
     <use xlink:href="#DejaVuSans-Bold-20" transform="translate(137.890625 0)"/>
     <use xlink:href="#DejaVuSans-Bold-53" transform="translate(172.705078 0)"/>
     <use xlink:href="#DejaVuSans-Bold-63" transform="translate(244.726562 0)"/>
     <use xlink:href="#DejaVuSans-Bold-6f" transform="translate(304.003906 0)"/>
     <use xlink:href="#DejaVuSans-Bold-72" transform="translate(372.705078 0)"/>
     <use xlink:href="#DejaVuSans-Bold-65" transform="translate(422.021484 0)"/>
     <use xlink:href="#DejaVuSans-Bold-20" transform="translate(489.84375 0)"/>
     <use xlink:href="#DejaVuSans-Bold-43" transform="translate(524.658203 0)"/>
     <use xlink:href="#DejaVuSans-Bold-6f" transform="translate(598.046875 0)"/>
     <use xlink:href="#DejaVuSans-Bold-6d" transform="translate(666.748047 0)"/>
     <use xlink:href="#DejaVuSans-Bold-70" transform="translate(770.947266 0)"/>
     <use xlink:href="#DejaVuSans-Bold-61" transform="translate(842.529297 0)"/>
     <use xlink:href="#DejaVuSans-Bold-72" transform="translate(910.009766 0)"/>
     <use xlink:href="#DejaVuSans-Bold-69" transform="translate(959.326172 0)"/>
     <use xlink:href="#DejaVuSans-Bold-73" transform="translate(993.603516 0)"/>
     <use xlink:href="#DejaVuSans-Bold-6f" transform="translate(1053.125 0)"/>
     <use xlink:href="#DejaVuSans-Bold-6e" transform="translate(1121.826172 0)"/>
     <use xlink:href="#DejaVuSans-Bold-20" transform="translate(1193.017578 0)"/>
     <use xlink:href="#DejaVuSans-Bold-41" transform="translate(1227.832031 0)"/>
     <use xlink:href="#DejaVuSans-Bold-63" transform="translate(1305.224609 0)"/>
     <use xlink:href="#DejaVuSans-Bold-72" transform="translate(1364.501953 0)"/>
     <use xlink:href="#DejaVuSans-Bold-6f" transform="translate(1413.818359 0)"/>
     <use xlink:href="#DejaVuSans-Bold-73" transform="translate(1482.519531 0)"/>
     <use xlink:href="#DejaVuSans-Bold-73" transform="translate(1542.041016 0)"/>
     <use xlink:href="#DejaVuSans-Bold-20" transform="translate(1601.5625 0)"/>
     <use xlink:href="#DejaVuSans-Bold-4d" transform="translate(1636.376953 0)"/>
     <use xlink:href="#DejaVuSans-Bold-6f" transform="translate(1735.888672 0)"/>
     <use xlink:href="#DejaVuSans-Bold-64" transform="translate(1804.589844 0)"/>
     <use xlink:href="#DejaVuSans-Bold-65" transform="translate(1876.171875 0)"/>
     <use xlink:href="#DejaVuSans-Bold-6c" transform="translate(1943.994141 0)"/>
     <use xlink:href="#DejaVuSans-Bold-73" transform="translate(1978.271484 0)"/>
    </g>
   </g>
   <g id="legend_1">
    <g id="patch_11">
     <path d="M 301.262227 604.268525 
L 742.376836 604.268525 
Q 745.676836 604.268525 745.676836 600.968525 
L 745.676836 528.510087 
Q 745.676836 525.210087 742.376836 525.210087 
L 301.262227 525.210087 
Q 297.962227 525.210087 297.962227 528.510087 
L 297.962227 600.968525 
Q 297.962227 604.268525 301.262227 604.268525 
z
" style="fill: #4d4d4d; opacity: 0.5; stroke: #4d4d4d; stroke-width: 1.5; stroke-linejoin: miter"/>
    </g>
    <g id="patch_12">
     <path d="M 299.262227 602.268525 
L 740.376836 602.268525 
Q 743.676836 602.268525 743.676836 598.968525 
L 743.676836 526.510087 
Q 743.676836 523.210087 740.376836 523.210087 
L 299.262227 523.210087 
Q 295.962227 523.210087 295.962227 526.510087 
L 295.962227 598.968525 
Q 295.962227 602.268525 299.262227 602.268525 
z
" style="fill: #ffffff; stroke: #cccccc; stroke-width: 1.5; stroke-linejoin: miter"/>
    </g>
    <g id="text_18">
     <!-- Models -->
     <g style="fill: #262626" transform="translate(488.107188 543.487275) scale(0.18 -0.18)">
      <use xlink:href="#DejaVuSans-4d"/>
      <use xlink:href="#DejaVuSans-6f" transform="translate(86.279297 0)"/>
      <use xlink:href="#DejaVuSans-64" transform="translate(147.460938 0)"/>
      <use xlink:href="#DejaVuSans-65" transform="translate(210.9375 0)"/>
      <use xlink:href="#DejaVuSans-6c" transform="translate(272.460938 0)"/>
      <use xlink:href="#DejaVuSans-73" transform="translate(300.244141 0)"/>
     </g>
    </g>
    <g id="line2d_23">
     <path d="M 302.562227 562.243134 
L 319.062227 562.243134 
L 335.562227 562.243134 
" style="fill: none; stroke: #4776ee; stroke-width: 2.5; stroke-linecap: round"/>
    </g>
    <g id="text_19">
     <!-- All-MPNet-Base-v2 -->
     <g style="fill: #262626" transform="translate(348.762227 568.018134) scale(0.165 -0.165)">
      <use xlink:href="#DejaVuSans-41"/>
      <use xlink:href="#DejaVuSans-6c" transform="translate(68.408203 0)"/>
      <use xlink:href="#DejaVuSans-6c" transform="translate(96.191406 0)"/>
      <use xlink:href="#DejaVuSans-2d" transform="translate(123.974609 0)"/>
      <use xlink:href="#DejaVuSans-4d" transform="translate(160.058594 0)"/>
      <use xlink:href="#DejaVuSans-50" transform="translate(246.337891 0)"/>
      <use xlink:href="#DejaVuSans-4e" transform="translate(306.640625 0)"/>
      <use xlink:href="#DejaVuSans-65" transform="translate(381.445312 0)"/>
      <use xlink:href="#DejaVuSans-74" transform="translate(442.96875 0)"/>
      <use xlink:href="#DejaVuSans-2d" transform="translate(482.177734 0)"/>
      <use xlink:href="#DejaVuSans-42" transform="translate(514.636719 0)"/>
      <use xlink:href="#DejaVuSans-61" transform="translate(583.240234 0)"/>
      <use xlink:href="#DejaVuSans-73" transform="translate(644.519531 0)"/>
      <use xlink:href="#DejaVuSans-65" transform="translate(696.619141 0)"/>
      <use xlink:href="#DejaVuSans-2d" transform="translate(758.142578 0)"/>
      <use xlink:href="#DejaVuSans-76" transform="translate(791.601562 0)"/>
      <use xlink:href="#DejaVuSans-32" transform="translate(850.78125 0)"/>
     </g>
    </g>
    <g id="line2d_24">
     <path d="M 302.562227 586.462041 
L 319.062227 586.462041 
L 335.562227 586.462041 
" style="fill: none; stroke: #1bd0d5; stroke-width: 2.5; stroke-linecap: round"/>
    </g>
    <g id="text_20">
     <!-- MPNet-Personality -->
     <g style="fill: #262626" transform="translate(348.762227 592.237041) scale(0.165 -0.165)">
      <use xlink:href="#DejaVuSans-4d"/>
      <use xlink:href="#DejaVuSans-50" transform="translate(86.279297 0)"/>
      <use xlink:href="#DejaVuSans-4e" transform="translate(146.582031 0)"/>
      <use xlink:href="#DejaVuSans-65" transform="translate(221.386719 0)"/>
      <use xlink:href="#DejaVuSans-74" transform="translate(282.910156 0)"/>
      <use xlink:href="#DejaVuSans-2d" transform="translate(322.119141 0)"/>
      <use xlink:href="#DejaVuSans-50" transform="translate(358.203125 0)"/>
      <use xlink:href="#DejaVuSans-65" transform="translate(414.880859 0)"/>
      <use xlink:href="#DejaVuSans-72" transform="translate(476.404297 0)"/>
      <use xlink:href="#DejaVuSans-73" transform="translate(517.517578 0)"/>
      <use xlink:href="#DejaVuSans-6f" transform="translate(569.617188 0)"/>
      <use xlink:href="#DejaVuSans-6e" transform="translate(630.798828 0)"/>
      <use xlink:href="#DejaVuSans-61" transform="translate(694.177734 0)"/>
      <use xlink:href="#DejaVuSans-6c" transform="translate(755.457031 0)"/>
      <use xlink:href="#DejaVuSans-69" transform="translate(783.240234 0)"/>
      <use xlink:href="#DejaVuSans-74" transform="translate(811.023438 0)"/>
      <use xlink:href="#DejaVuSans-79" transform="translate(850.232422 0)"/>
     </g>
    </g>
    <g id="line2d_25">
     <path d="M 532.639258 562.243134 
L 549.139258 562.243134 
L 565.639258 562.243134 
" style="fill: none; stroke: #61fc6c; stroke-width: 2.5; stroke-linecap: round"/>
    </g>
    <g id="text_21">
     <!-- SciBERT (SciVocab) -->
     <g style="fill: #262626" transform="translate(578.839258 568.018134) scale(0.165 -0.165)">
      <use xlink:href="#DejaVuSans-53"/>
      <use xlink:href="#DejaVuSans-63" transform="translate(63.476562 0)"/>
      <use xlink:href="#DejaVuSans-69" transform="translate(118.457031 0)"/>
      <use xlink:href="#DejaVuSans-42" transform="translate(146.240234 0)"/>
      <use xlink:href="#DejaVuSans-45" transform="translate(214.84375 0)"/>
      <use xlink:href="#DejaVuSans-52" transform="translate(278.027344 0)"/>
      <use xlink:href="#DejaVuSans-54" transform="translate(340.259766 0)"/>
      <use xlink:href="#DejaVuSans-20" transform="translate(401.34375 0)"/>
      <use xlink:href="#DejaVuSans-28" transform="translate(433.130859 0)"/>
      <use xlink:href="#DejaVuSans-53" transform="translate(472.144531 0)"/>
      <use xlink:href="#DejaVuSans-63" transform="translate(535.621094 0)"/>
      <use xlink:href="#DejaVuSans-69" transform="translate(590.601562 0)"/>
      <use xlink:href="#DejaVuSans-56" transform="translate(618.384766 0)"/>
      <use xlink:href="#DejaVuSans-6f" transform="translate(679.042969 0)"/>
      <use xlink:href="#DejaVuSans-63" transform="translate(740.224609 0)"/>
      <use xlink:href="#DejaVuSans-61" transform="translate(795.205078 0)"/>
      <use xlink:href="#DejaVuSans-62" transform="translate(856.484375 0)"/>
      <use xlink:href="#DejaVuSans-29" transform="translate(919.960938 0)"/>
     </g>
    </g>
    <g id="line2d_26">
     <path d="M 532.639258 586.462041 
L 549.139258 586.462041 
L 565.639258 586.462041 
" style="fill: none; stroke: #d2e935; stroke-width: 2.5; stroke-linecap: round"/>
    </g>
    <g id="text_22">
     <!-- BERT Base -->
     <g style="fill: #262626" transform="translate(578.839258 592.237041) scale(0.165 -0.165)">
      <use xlink:href="#DejaVuSans-42"/>
      <use xlink:href="#DejaVuSans-45" transform="translate(68.603516 0)"/>
      <use xlink:href="#DejaVuSans-52" transform="translate(131.787109 0)"/>
      <use xlink:href="#DejaVuSans-54" transform="translate(194.019531 0)"/>
      <use xlink:href="#DejaVuSans-20" transform="translate(255.103516 0)"/>
      <use xlink:href="#DejaVuSans-42" transform="translate(286.890625 0)"/>
      <use xlink:href="#DejaVuSans-61" transform="translate(355.494141 0)"/>
      <use xlink:href="#DejaVuSans-73" transform="translate(416.773438 0)"/>
      <use xlink:href="#DejaVuSans-65" transform="translate(468.873047 0)"/>
     </g>
    </g>
   </g>
  </g>
 </g>
 <defs>
  <clipPath id="pb6b31af086">
   <rect x="63.489531" y="40.877187" width="912.66" height="412.246"/>
  </clipPath>
 </defs>
</svg>
